<svg xmlns="http://www.w3.org/2000/svg" width="2400" height="789" viewBox="0 0 551.16 181.10"><path d="M16.13 12Q20.60 12 20.60 18.37Q20.60 27.01 20.49 36.57Q20.38 46.13 20.31 53.89Q20.23 61.66 20.16 71.99Q20.01 93.45 19.87 124.65Q34.44 124.94 47.85 123.62Q50.48 123.33 51.95 124.72Q53.41 126.11 53.41 127.65Q53.41 129.19 52.09 130.32Q50.78 131.46 48.21 131.31Q39.86 130.65 30.23 131.02Q20.60 131.38 18.62 131.68Q16.65 131.97 15.73 131.79Q14.81 131.60 14.08 131.02Q12.47 129.77 12.62 127.36Q13.50 110.22 13.50 82.57Q13.50 54.92 13.46 48.36Q13.42 41.81 13.28 36.32Q12.98 25.40 12.03 16.69Q11.81 14.34 13.13 13.17Q14.45 12 16.13 12M92.74 116Q92.67 111.98 92.74 106.12Q89.59 105.02 84.76 105.02Q78.24 105.02 74.07 108.17Q72.02 109.78 70.77 112.09Q69.53 114.39 69.53 118.02Q69.53 121.64 72.02 124.06Q74.51 126.48 79.34 126.48Q84.17 126.48 90.11 119.89Q91.79 118.05 92.74 116M97.43 132.56Q93.04 132.56 93.04 125.89Q93.04 125.45 92.96 123.40Q92.30 124.21 91.50 125.16Q84.91 132.63 77.14 132.63Q70.92 132.63 66.82 128.67Q62.57 124.57 62.57 118.20Q62.57 109.34 69.45 103.92Q72.53 101.50 76.37 100.26Q80.22 99.01 84.98 99.01Q88.94 99.01 92.74 100.33L92.74 92.57Q92.74 86.12 90.07 82.90Q87.40 79.68 84.54 79.68Q81.68 79.68 79.89 80.41Q78.10 81.14 76.70 82.53Q73.63 85.54 73.19 90Q73.41 92.35 72.24 93.26Q71.06 94.18 69.67 94.18Q65.72 94.18 65.86 88.90Q66.01 83.41 71.43 78.80Q77 74.04 83.88 74.04Q94.14 74.04 97.72 84.22Q98.97 87.88 98.97 92.27L98.97 99.82L98.90 112.12L98.90 118.64Q98.90 123.04 99.96 125.75Q101.02 128.46 101.02 129.59Q101.02 130.73 99.92 131.64Q98.82 132.56 97.43 132.56M186.42 100.77Q186.42 98.35 187.63 97Q188.84 95.64 190.41 95.64Q191.99 95.64 193.20 96.78Q194.40 97.91 194.26 100.26Q193.53 115.05 186.27 124.06Q179.32 132.70 168.84 132.70Q149.07 132.70 143.28 103.11Q141.08 92.20 141.08 77.37Q141.08 62.54 142.92 50.93Q144.75 39.32 148.48 30.75Q156.46 12.44 171.19 12.44Q182.61 12.44 188.11 21.45Q193.89 31.04 193.89 52.80Q193.89 55.21 192.79 56.42Q191.69 57.63 190.16 57.63Q186.79 57.63 186.79 53.38Q186.79 26.28 178.14 21.08Q175.07 19.25 170.97 19.25Q166.87 19.25 163.61 21.56Q160.35 23.87 157.82 27.93Q155.29 32 153.46 37.52Q151.63 43.05 150.46 49.43Q148.12 62.32 148.12 74.88Q148.12 87.44 148.92 95.02Q149.73 102.60 151.19 107.98Q152.66 113.37 154.67 116.77Q156.68 120.18 159.10 122.16Q163.20 125.60 169.58 125.60Q176.68 125.60 181.22 119.81Q186.57 113.15 186.42 100.77M234.47 81.73Q232.05 79.97 228.79 79.97Q225.53 79.97 222.86 81.76Q220.19 83.56 218.35 86.78Q214.62 93.23 214.62 104.47Q214.62 115.71 218.21 121.06Q221.80 126.40 227.80 126.40Q234.39 126.40 238.35 118.86Q241.87 112.12 241.87 102.31Q241.87 87.22 234.47 81.73M227.73 132.63Q223.55 132.70 219.93 130.91Q216.30 129.11 213.67 125.31Q207.88 117.25 207.88 102.38Q207.88 89.05 214.11 81.36Q219.97 74.04 229.63 74.04Q237.76 74.04 243.11 81.07Q248.60 88.54 248.60 101.58Q248.60 116.08 242.23 124.72Q236.52 132.48 227.73 132.63M292.40 99.60L292.11 83.34Q288.37 80.48 283.03 80.48Q277.61 80.48 272.77 86.93Q267.06 94.40 267.06 105.82Q267.06 114.91 270.54 120.62Q274.02 126.33 279.37 126.33Q284.86 126.33 288.30 121.94Q292.92 116 292.55 106.85Q292.40 103.11 292.40 99.60M293.35 134.31L293.28 126.62L293.28 122.60Q290.79 127.21 288.89 128.97Q284.71 132.63 280.13 132.63Q275.56 132.63 272.08 130.91Q268.60 129.19 266.04 125.75Q260.62 118.35 260.62 105.02Q260.62 91.03 267.79 82.24Q274.46 74.18 283.47 74.18Q289.18 74.18 292.84 77.19Q293.21 76.23 293.94 75.50Q295.26 74.33 296.65 74.33Q299.65 74.33 299.51 79.90Q299.36 85.46 299.36 90.44L299.36 100.55L299.87 165Q299.87 166.91 298.52 168.01Q297.16 169.10 296.03 169.10Q294.89 169.10 294.20 168.81Q293.50 168.52 292.99 167.93Q291.67 166.69 291.96 164.38Q292.26 162.07 292.51 158.59Q292.77 155.12 292.99 151.09Q293.35 142.37 293.35 134.31M325.21 113.15Q325.21 126.18 334.96 126.18Q340.52 126.18 344.48 120.62Q347.99 115.64 348.65 108.75Q348.87 102.31 348.87 96.89Q348.87 89.12 348.73 81.21Q348.58 78.80 349.97 77.55Q351.36 76.31 352.86 76.31Q354.37 76.31 355.54 77.44Q356.71 78.58 356.42 80.77Q355.10 94.91 355.10 108.06Q355.10 121.20 355.46 122.74Q355.83 124.28 356.34 125.31Q357.51 127.94 357.51 129.15Q357.51 130.36 356.60 131.42Q355.68 132.48 354.07 132.48Q348.58 132.48 348.73 122.45Q346.24 126.99 344.11 128.75Q336.86 134.75 328.22 131.60Q318.55 127.94 318.55 112.49Q318.55 104.43 318.44 96.59Q318.33 88.76 318.40 81.21Q318.48 78.80 319.76 77.59Q321.04 76.38 322.54 76.38Q324.04 76.38 325.29 77.48Q326.53 78.58 326.20 81.21Q325.87 83.85 325.69 88.10Q325.51 92.35 325.43 96.81Q325.21 104.29 325.21 113.15M403 99.38Q403.14 86.63 397.65 81.95Q395.45 79.97 392.30 79.97Q389.16 79.97 387.10 81.14Q385.05 82.31 383.48 84.29Q381.90 86.27 380.84 88.79Q379.78 91.32 379.12 93.96Q378.46 96.74 378.17 99.45L388.20 99.89Q398.02 99.89 403 99.38M404.24 105.31L377.88 105.75Q378.02 115.86 381.54 121.20Q385.35 126.92 392.30 126.92Q398.68 126.92 401.61 120.62Q403.44 116.52 406.15 116.52Q407.39 116.52 408.24 117.32Q409.08 118.13 409 120.14Q408.93 122.16 407.58 124.50Q406.22 126.84 403.80 128.67Q398.53 132.78 391.13 132.78Q383.15 132.78 377.36 125.96Q371.28 118.79 371.28 108.90Q371.28 99.01 373.01 92.82Q374.73 86.63 377.58 82.53Q383.15 74.26 391.50 74.26Q402.19 74.26 406.51 82.68Q409.52 88.54 409.74 99.89Q409.81 103.11 408.71 104.21Q407.61 105.31 404.24 105.31M426.22 77.19L426.22 61.58Q426.22 59.02 427.46 57.78Q428.71 56.53 430.17 56.53Q431.64 56.53 432.81 57.78Q433.98 59.02 433.69 61.58Q433.03 68.40 432.88 77.41Q438.89 77.41 441.96 77.04Q445.04 76.67 446.36 76.67Q451.34 76.53 451.34 80.33Q451.34 82.53 448.77 83.41Q447.90 83.70 446.72 83.63Q445.55 83.56 444.20 83.52Q442.84 83.48 441.52 83.48Q439.25 83.48 437.17 83.48Q435.08 83.48 433.47 83.56Q433.17 83.56 432.81 83.56Q432.81 83.70 432.81 83.78Q432.81 114.10 433.69 117.98Q434.57 121.86 435.59 123.55Q437.42 126.48 440.28 126.48Q444.89 126.48 446.50 121.94Q447.16 118.27 450.24 118.27Q451.34 118.27 452.18 119.19Q453.02 120.11 453.02 121.86Q453.02 123.62 451.92 125.67Q450.83 127.72 448.99 129.26Q444.97 132.63 439.99 132.63Q430.90 132.63 427.46 122.60Q426.22 118.93 426.22 113.59L426.22 84.07Q424.68 84.14 422.85 84.29Q420.58 84.36 419.44 83.15Q418.31 81.95 418.31 80.59Q418.31 79.24 419.48 78.17Q420.65 77.11 422.99 77.11L426.22 77.19M465.62 77.19L465.62 61.58Q465.62 59.02 466.87 57.78Q468.11 56.53 469.58 56.53Q471.04 56.53 472.21 57.78Q473.38 59.02 473.09 61.58Q472.43 68.40 472.29 77.41Q478.29 77.41 481.37 77.04Q484.44 76.67 485.76 76.67Q490.74 76.53 490.74 80.33Q490.74 82.53 488.18 83.41Q487.30 83.70 486.13 83.63Q484.96 83.56 483.60 83.52Q482.25 83.48 480.93 83.48Q478.66 83.48 476.57 83.48Q474.48 83.48 472.87 83.56Q472.58 83.56 472.21 83.56Q472.21 83.70 472.21 83.78Q472.21 114.10 473.09 117.98Q473.97 121.86 475 123.55Q476.83 126.48 479.68 126.48Q484.30 126.48 485.91 121.94Q486.57 118.27 489.64 118.27Q490.74 118.27 491.58 119.19Q492.43 120.11 492.43 121.86Q492.43 123.62 491.33 125.67Q490.23 127.72 488.40 129.26Q484.37 132.63 479.39 132.63Q470.31 132.63 466.87 122.60Q465.62 118.93 465.62 113.59L465.62 84.07Q464.08 84.14 462.25 84.29Q459.98 84.36 458.85 83.15Q457.71 81.95 457.71 80.59Q457.71 79.24 458.88 78.17Q460.05 77.11 462.40 77.11L465.62 77.19M532.42 99.38Q532.56 86.63 527.07 81.95Q524.87 79.97 521.72 79.97Q518.57 79.97 516.52 81.14Q514.47 82.31 512.90 84.29Q511.32 86.27 510.26 88.79Q509.20 91.32 508.54 93.96Q507.88 96.74 507.59 99.45L517.62 99.89Q527.44 99.89 532.42 99.38M533.66 105.31L507.30 105.75Q507.44 115.86 510.96 121.20Q514.77 126.92 521.72 126.92Q528.10 126.92 531.03 120.62Q532.86 116.52 535.57 116.52Q536.81 116.52 537.65 117.32Q538.50 118.13 538.42 120.14Q538.35 122.16 536.99 124.50Q535.64 126.84 533.22 128.67Q527.95 132.78 520.55 132.78Q512.57 132.78 506.78 125.96Q500.70 118.79 500.70 108.90Q500.70 99.01 502.42 92.82Q504.15 86.63 507 82.53Q512.57 74.26 520.92 74.26Q531.61 74.26 535.93 82.68Q538.94 88.54 539.16 99.89Q539.23 103.11 538.13 104.21Q537.03 105.31 533.66 105.31" fill="#ffffff"/></svg>