<svg xmlns="http://www.w3.org/2000/svg" width="64" height="64" viewBox="0 0 64 64" role="img" aria-label="La Coquette"><title>La Coquette</title><rect width="64" height="64" rx="14" fill="#111111"/><path d="M16.09 12.16Q17.56 12.16 17.56 14.25Q17.56 17.10 17.52 20.24Q17.48 23.38 17.46 25.93Q17.44 28.48 17.41 31.88Q17.36 38.93 17.32 49.19Q22.11 49.29 26.51 48.85Q27.38 48.76 27.86 49.22Q28.34 49.67 28.34 50.18Q28.34 50.68 27.91 51.06Q27.48 51.43 26.63 51.38Q23.89 51.17 20.72 51.29Q17.56 51.41 16.91 51.50Q16.26 51.60 15.95 51.54Q15.65 51.48 15.41 51.29Q14.88 50.88 14.93 50.08Q15.22 44.45 15.22 35.36Q15.22 26.27 15.21 24.11Q15.20 21.96 15.15 20.15Q15.05 16.57 14.74 13.70Q14.67 12.93 15.10 12.55Q15.53 12.16 16.09 12.16M46.69 41.34Q46.69 40.55 47.09 40.10Q47.48 39.66 48 39.66Q48.52 39.66 48.92 40.03Q49.31 40.40 49.27 41.17Q49.03 46.04 46.64 49Q44.35 51.84 40.91 51.84Q34.41 51.84 32.51 42.11Q31.79 38.53 31.79 33.65Q31.79 28.77 32.39 24.96Q32.99 21.14 34.22 18.32Q36.84 12.30 41.68 12.30Q45.44 12.30 47.24 15.27Q49.15 18.42 49.15 25.57Q49.15 26.37 48.78 26.76Q48.42 27.16 47.92 27.16Q46.81 27.16 46.81 25.76Q46.81 16.86 43.97 15.15Q42.96 14.54 41.61 14.54Q40.26 14.54 39.19 15.30Q38.12 16.06 37.29 17.40Q36.46 18.73 35.85 20.55Q35.25 22.37 34.87 24.46Q34.10 28.70 34.10 32.83Q34.10 36.96 34.36 39.45Q34.63 41.94 35.11 43.71Q35.59 45.48 36.25 46.60Q36.91 47.72 37.71 48.37Q39.06 49.50 41.15 49.50Q43.49 49.50 44.98 47.60Q46.74 45.41 46.69 41.34" fill="#FFFFFF"/></svg>
