<svg xmlns="http://www.w3.org/2000/svg" width="64" height="64" viewBox="0 0 64 64" role="img" aria-label="La Coquette"><title>La Coquette</title><rect width="64" height="64" rx="14" fill="#111111"/><path d="M38.58 41.90Q38.58 41.06 39.01 40.58Q39.43 40.10 39.98 40.10Q40.54 40.10 40.96 40.50Q41.39 40.90 41.34 41.72Q41.08 46.92 38.53 50.08Q36.09 53.12 32.41 53.12Q25.46 53.12 23.43 42.73Q22.66 38.89 22.66 33.68Q22.66 28.48 23.30 24.40Q23.95 20.32 25.26 17.31Q28.06 10.88 33.23 10.88Q37.25 10.88 39.17 14.04Q41.21 17.41 41.21 25.05Q41.21 25.90 40.82 26.33Q40.43 26.75 39.89 26.75Q38.71 26.75 38.71 25.26Q38.71 15.74 35.68 13.92Q34.60 13.27 33.15 13.27Q31.71 13.27 30.57 14.08Q29.42 14.89 28.54 16.32Q27.65 17.75 27.01 19.69Q26.36 21.63 25.95 23.87Q25.13 28.40 25.13 32.81Q25.13 37.22 25.41 39.88Q25.69 42.55 26.21 44.44Q26.72 46.33 27.43 47.52Q28.14 48.72 28.99 49.42Q30.43 50.62 32.67 50.62Q35.16 50.62 36.76 48.59Q38.63 46.25 38.58 41.90" fill="#FFFFFF"/></svg>
