<svg xmlns="http://www.w3.org/2000/svg" width="64" height="64" viewBox="0 0 64 64"><rect width="64" height="64" rx="14" fill="#141414"/><path d="M37.78 40.70Q37.78 39.96 38.16 39.54Q38.53 39.12 39.02 39.12Q39.50 39.12 39.88 39.47Q40.25 39.82 40.20 40.55Q39.98 45.11 37.74 47.89Q35.59 50.56 32.36 50.56Q26.26 50.56 24.47 41.43Q23.79 38.06 23.79 33.48Q23.79 28.90 24.36 25.32Q24.92 21.74 26.07 19.09Q28.54 13.44 33.08 13.44Q36.61 13.44 38.30 16.22Q40.09 19.18 40.09 25.90Q40.09 26.64 39.75 27.02Q39.41 27.39 38.94 27.39Q37.90 27.39 37.90 26.08Q37.90 17.71 35.23 16.11Q34.28 15.54 33.01 15.54Q31.75 15.54 30.74 16.25Q29.74 16.97 28.96 18.22Q28.18 19.48 27.61 21.18Q27.05 22.89 26.69 24.86Q25.96 28.84 25.96 32.71Q25.96 36.59 26.21 38.93Q26.46 41.27 26.91 42.93Q27.36 44.59 27.98 45.64Q28.61 46.69 29.35 47.30Q30.62 48.37 32.59 48.37Q34.78 48.37 36.18 46.58Q37.83 44.52 37.78 40.70" fill="#B8924E"/></svg>
