<svg xmlns="http://www.w3.org/2000/svg" width="64" height="64" viewBox="0 0 64 64"><rect width="64" height="64" rx="14" fill="#141414"/><path d="M10.50 19.20L14.96 19.20L14.96 44.80L10.50 44.80L10.50 19.20M14.85 43.37L24.65 43.37L25.27 44.80L14.85 44.80L14.85 43.37M26.84 37.85L27.21 37.85L25.38 44.80L18.54 44.80L19.86 43.37Q21.72 43.37 23.08 42.70Q24.43 42.02 25.34 40.76Q26.26 39.50 26.84 37.85M10.50 42.13L10.61 42.13L10.61 44.80L7.68 44.80L7.68 44.43Q7.68 44.43 7.92 44.43Q8.16 44.43 8.16 44.43Q9.11 44.43 9.78 43.76Q10.46 43.08 10.50 42.13M10.61 19.20L10.61 21.87L10.50 21.87Q10.46 20.92 9.78 20.24Q9.11 19.57 8.16 19.57Q8.16 19.57 7.92 19.57Q7.68 19.57 7.68 19.57L7.68 19.20L10.61 19.20M14.96 21.87L14.85 21.87L14.85 19.20L17.77 19.20L17.77 19.57Q17.74 19.57 17.52 19.57Q17.30 19.57 17.30 19.57Q16.35 19.57 15.67 20.24Q14.99 20.92 14.96 21.87M55.95 34.12L56.25 34.12L56.32 40.23Q55.48 41.65 54.09 42.81Q52.70 43.96 50.71 44.64Q48.71 45.31 46.04 45.31Q41.80 45.28 38.58 43.67Q35.36 42.06 33.59 39.08Q31.82 36.10 31.82 31.96Q31.82 27.90 33.57 24.92Q35.33 21.94 38.55 20.32Q41.76 18.69 46.19 18.69Q49.04 18.69 51.31 19.33Q53.58 19.97 55.15 20.85L55.44 26.73L55.11 26.73Q54.20 23.26 51.88 21.67Q49.55 20.08 46.45 20.08Q43.45 20.08 41.27 21.52Q39.09 22.97 37.91 25.62Q36.72 28.27 36.72 31.89Q36.72 35.51 37.87 38.20Q39.02 40.89 41.12 42.37Q43.23 43.85 46.04 43.92Q48.79 43.92 50.82 42.99Q52.85 42.06 54.14 39.90Q55.44 37.74 55.95 34.12" fill="#FAF8F6"/></svg>
