<svg xmlns="http://www.w3.org/2000/svg" width="64" height="64" viewBox="0 0 64 64" role="img" aria-label="La Coquette">
  <title>La Coquette</title>
  <rect width="64" height="64" rx="12" fill="#FAF8F6"/>
  <circle cx="32" cy="32" r="28" fill="none" stroke="#111111" stroke-width="1"/>
  <path d="M19.09 15.91Q20.28 15.91 20.28 17.61Q20.28 19.91 20.25 22.46Q20.22 25.01 20.21 27.08Q20.19 29.15 20.17 31.90Q20.13 37.63 20.09 45.95Q23.97 46.02 27.55 45.67Q28.25 45.59 28.64 45.96Q29.03 46.34 29.03 46.75Q29.03 47.16 28.68 47.46Q28.33 47.76 27.65 47.72Q25.42 47.55 22.85 47.64Q20.28 47.74 19.76 47.82Q19.23 47.90 18.98 47.85Q18.74 47.80 18.55 47.64Q18.12 47.31 18.15 46.67Q18.39 42.10 18.39 34.72Q18.39 27.35 18.38 25.60Q18.37 23.86 18.33 22.39Q18.25 19.48 18 17.16Q17.94 16.53 18.29 16.22Q18.64 15.91 19.09 15.91M43.92 39.58Q43.92 38.93 44.24 38.57Q44.56 38.21 44.98 38.21Q45.40 38.21 45.72 38.51Q46.05 38.82 46.01 39.44Q45.81 43.39 43.88 45.79Q42.02 48.09 39.23 48.09Q33.96 48.09 32.41 40.20Q31.83 37.29 31.83 33.34Q31.83 29.38 32.31 26.29Q32.80 23.19 33.80 20.91Q35.93 16.02 39.85 16.02Q42.90 16.02 44.37 18.43Q45.91 20.98 45.91 26.79Q45.91 27.43 45.62 27.75Q45.32 28.07 44.91 28.07Q44.01 28.07 44.01 26.94Q44.01 19.71 41.71 18.33Q40.89 17.84 39.80 17.84Q38.70 17.84 37.83 18.46Q36.96 19.07 36.29 20.15Q35.62 21.24 35.13 22.71Q34.64 24.19 34.33 25.89Q33.70 29.32 33.70 32.67Q33.70 36.02 33.92 38.04Q34.13 40.07 34.52 41.50Q34.91 42.94 35.45 43.85Q35.99 44.75 36.63 45.28Q37.72 46.20 39.42 46.20Q41.32 46.20 42.53 44.66Q43.96 42.88 43.92 39.58" fill="#111111"/>
</svg>
