<svg xmlns="http://www.w3.org/2000/svg" width="639" height="321" viewBox="0 0 639.16 321.10" role="img" aria-label="La Coquette — Bijoux artisanaux">
  <title>La Coquette</title>
  <path d="M60.13 56Q64.60 56 64.60 62.37Q64.60 71.01 64.49 80.57Q64.38 90.13 64.31 97.89Q64.23 105.66 64.16 115.99Q64.01 137.45 63.87 168.65Q78.44 168.94 91.85 167.62Q94.48 167.33 95.95 168.72Q97.41 170.11 97.41 171.65Q97.41 173.19 96.09 174.32Q94.78 175.46 92.21 175.31Q83.86 174.65 74.23 175.02Q64.60 175.38 62.62 175.68Q60.65 175.97 59.73 175.79Q58.81 175.60 58.08 175.02Q56.47 173.77 56.62 171.36Q57.50 154.22 57.50 126.57Q57.50 98.92 57.46 92.36Q57.42 85.81 57.28 80.32Q56.98 69.40 56.03 60.69Q55.81 58.34 57.13 57.17Q58.45 56 60.13 56M136.74 160Q136.67 155.98 136.74 150.12Q133.59 149.02 128.76 149.02Q122.24 149.02 118.07 152.17Q116.02 153.78 114.77 156.09Q113.53 158.39 113.53 162.02Q113.53 165.64 116.02 168.06Q118.51 170.48 123.34 170.48Q128.17 170.48 134.11 163.89Q135.79 162.05 136.74 160M141.43 176.56Q137.04 176.56 137.04 169.89Q137.04 169.45 136.96 167.40Q136.30 168.21 135.50 169.16Q128.91 176.63 121.14 176.63Q114.92 176.63 110.82 172.67Q106.57 168.57 106.57 162.20Q106.57 153.34 113.45 147.92Q116.53 145.50 120.37 144.26Q124.22 143.01 128.98 143.01Q132.94 143.01 136.74 144.33L136.74 136.57Q136.74 130.12 134.07 126.90Q131.40 123.68 128.54 123.68Q125.68 123.68 123.89 124.41Q122.10 125.14 120.70 126.53Q117.63 129.54 117.19 134Q117.41 136.35 116.24 137.26Q115.06 138.18 113.67 138.18Q109.72 138.18 109.86 132.90Q110.01 127.41 115.43 122.80Q121 118.04 127.88 118.04Q138.14 118.04 141.72 128.22Q142.97 131.88 142.97 136.27L142.97 143.82L142.90 156.12L142.90 162.64Q142.90 167.04 143.96 169.75Q145.02 172.46 145.02 173.59Q145.02 174.73 143.92 175.64Q142.82 176.56 141.43 176.56M230.42 144.77Q230.42 142.35 231.63 141Q232.84 139.64 234.41 139.64Q235.99 139.64 237.20 140.78Q238.40 141.91 238.26 144.26Q237.53 159.05 230.27 168.06Q223.32 176.70 212.84 176.70Q193.07 176.70 187.28 147.11Q185.08 136.20 185.08 121.37Q185.08 106.54 186.92 94.93Q188.75 83.32 192.48 74.75Q200.46 56.44 215.19 56.44Q226.61 56.44 232.11 65.45Q237.89 75.04 237.89 96.80Q237.89 99.21 236.79 100.42Q235.69 101.63 234.16 101.63Q230.79 101.63 230.79 97.38Q230.79 70.28 222.14 65.08Q219.07 63.25 214.97 63.25Q210.87 63.25 207.61 65.56Q204.35 67.87 201.82 71.93Q199.29 76 197.46 81.52Q195.63 87.05 194.46 93.43Q192.12 106.32 192.12 118.88Q192.12 131.44 192.92 139.02Q193.73 146.60 195.19 151.98Q196.66 157.37 198.67 160.77Q200.68 164.18 203.10 166.16Q207.20 169.60 213.58 169.60Q220.68 169.60 225.22 163.81Q230.57 157.15 230.42 144.77M278.47 125.73Q276.05 123.97 272.79 123.97Q269.53 123.97 266.86 125.76Q264.19 127.56 262.35 130.78Q258.62 137.23 258.62 148.47Q258.62 159.71 262.21 165.06Q265.80 170.40 271.80 170.40Q278.39 170.40 282.35 162.86Q285.87 156.12 285.87 146.31Q285.87 131.22 278.47 125.73M271.73 176.63Q267.55 176.70 263.93 174.91Q260.30 173.11 257.67 169.31Q251.88 161.25 251.88 146.38Q251.88 133.05 258.11 125.36Q263.97 118.04 273.63 118.04Q281.76 118.04 287.11 125.07Q292.60 132.54 292.60 145.58Q292.60 160.08 286.23 168.72Q280.52 176.48 271.73 176.63M336.40 143.60L336.11 127.34Q332.37 124.48 327.03 124.48Q321.61 124.48 316.77 130.93Q311.06 138.40 311.06 149.82Q311.06 158.91 314.54 164.62Q318.02 170.33 323.37 170.33Q328.86 170.33 332.30 165.94Q336.92 160 336.55 150.85Q336.40 147.11 336.40 143.60M337.35 178.31L337.28 170.62L337.28 166.60Q334.79 171.21 332.89 172.97Q328.71 176.63 324.13 176.63Q319.56 176.63 316.08 174.91Q312.60 173.19 310.04 169.75Q304.62 162.35 304.62 149.02Q304.62 135.03 311.79 126.24Q318.46 118.18 327.47 118.18Q333.18 118.18 336.84 121.19Q337.21 120.23 337.94 119.50Q339.26 118.33 340.65 118.33Q343.65 118.33 343.51 123.90Q343.36 129.46 343.36 134.44L343.36 144.55L343.87 209Q343.87 210.91 342.52 212.01Q341.16 213.10 340.03 213.10Q338.89 213.10 338.20 212.81Q337.50 212.52 336.99 211.93Q335.67 210.69 335.96 208.38Q336.26 206.07 336.51 202.59Q336.77 199.12 336.99 195.09Q337.35 186.37 337.35 178.31M369.21 157.15Q369.21 170.18 378.96 170.18Q384.52 170.18 388.48 164.62Q391.99 159.64 392.65 152.75Q392.87 146.31 392.87 140.89Q392.87 133.12 392.73 125.21Q392.58 122.80 393.97 121.55Q395.36 120.31 396.86 120.31Q398.37 120.31 399.54 121.44Q400.71 122.58 400.42 124.77Q399.10 138.91 399.10 152.06Q399.10 165.20 399.46 166.74Q399.83 168.28 400.34 169.31Q401.51 171.94 401.51 173.15Q401.51 174.36 400.60 175.42Q399.68 176.48 398.07 176.48Q392.58 176.48 392.73 166.45Q390.24 170.99 388.11 172.75Q380.86 178.75 372.22 175.60Q362.55 171.94 362.55 156.49Q362.55 148.43 362.44 140.59Q362.33 132.76 362.40 125.21Q362.48 122.80 363.76 121.59Q365.04 120.38 366.54 120.38Q368.04 120.38 369.29 121.48Q370.53 122.58 370.20 125.21Q369.87 127.85 369.69 132.10Q369.51 136.35 369.43 140.81Q369.21 148.29 369.21 157.15M447 143.38Q447.14 130.63 441.65 125.95Q439.45 123.97 436.30 123.97Q433.16 123.97 431.10 125.14Q429.05 126.31 427.48 128.29Q425.90 130.27 424.84 132.79Q423.78 135.32 423.12 137.96Q422.46 140.74 422.17 143.45L432.20 143.89Q442.02 143.89 447 143.38M448.24 149.31L421.88 149.75Q422.02 159.86 425.54 165.20Q429.35 170.92 436.30 170.92Q442.68 170.92 445.61 164.62Q447.44 160.52 450.15 160.52Q451.39 160.52 452.24 161.32Q453.08 162.13 453 164.14Q452.93 166.16 451.58 168.50Q450.22 170.84 447.80 172.67Q442.53 176.78 435.13 176.78Q427.15 176.78 421.36 169.96Q415.28 162.79 415.28 152.90Q415.28 143.01 417.01 136.82Q418.73 130.63 421.58 126.53Q427.15 118.26 435.50 118.26Q446.19 118.26 450.51 126.68Q453.52 132.54 453.74 143.89Q453.81 147.11 452.71 148.21Q451.61 149.31 448.24 149.31M470.22 121.19L470.22 105.58Q470.22 103.02 471.46 101.78Q472.71 100.53 474.17 100.53Q475.64 100.53 476.81 101.78Q477.98 103.02 477.69 105.58Q477.03 112.40 476.88 121.41Q482.89 121.41 485.96 121.04Q489.04 120.67 490.36 120.67Q495.34 120.53 495.34 124.33Q495.34 126.53 492.77 127.41Q491.90 127.70 490.72 127.63Q489.55 127.56 488.20 127.52Q486.84 127.48 485.52 127.48Q483.25 127.48 481.17 127.48Q479.08 127.48 477.47 127.56Q477.17 127.56 476.81 127.56Q476.81 127.70 476.81 127.78Q476.81 158.10 477.69 161.98Q478.57 165.86 479.59 167.55Q481.42 170.48 484.28 170.48Q488.89 170.48 490.50 165.94Q491.16 162.27 494.24 162.27Q495.34 162.27 496.18 163.19Q497.02 164.11 497.02 165.86Q497.02 167.62 495.92 169.67Q494.83 171.72 492.99 173.26Q488.97 176.63 483.99 176.63Q474.90 176.63 471.46 166.60Q470.22 162.93 470.22 157.59L470.22 128.07Q468.68 128.14 466.85 128.29Q464.58 128.36 463.44 127.15Q462.31 125.95 462.31 124.59Q462.31 123.24 463.48 122.17Q464.65 121.11 466.99 121.11L470.22 121.19M509.62 121.19L509.62 105.58Q509.62 103.02 510.87 101.78Q512.11 100.53 513.58 100.53Q515.04 100.53 516.21 101.78Q517.38 103.02 517.09 105.58Q516.43 112.40 516.29 121.41Q522.29 121.41 525.37 121.04Q528.44 120.67 529.76 120.67Q534.74 120.53 534.74 124.33Q534.74 126.53 532.18 127.41Q531.30 127.70 530.13 127.63Q528.96 127.56 527.60 127.52Q526.25 127.48 524.93 127.48Q522.66 127.48 520.57 127.48Q518.48 127.48 516.87 127.56Q516.58 127.56 516.21 127.56Q516.21 127.70 516.21 127.78Q516.21 158.10 517.09 161.98Q517.97 165.86 519 167.55Q520.83 170.48 523.68 170.48Q528.30 170.48 529.91 165.94Q530.57 162.27 533.64 162.27Q534.74 162.27 535.58 163.19Q536.43 164.11 536.43 165.86Q536.43 167.62 535.33 169.67Q534.23 171.72 532.40 173.26Q528.37 176.63 523.39 176.63Q514.31 176.63 510.87 166.60Q509.62 162.93 509.62 157.59L509.62 128.07Q508.08 128.14 506.25 128.29Q503.98 128.36 502.85 127.15Q501.71 125.95 501.71 124.59Q501.71 123.24 502.88 122.17Q504.05 121.11 506.40 121.11L509.62 121.19M576.42 143.38Q576.56 130.63 571.07 125.95Q568.87 123.97 565.72 123.97Q562.57 123.97 560.52 125.14Q558.47 126.31 556.90 128.29Q555.32 130.27 554.26 132.79Q553.20 135.32 552.54 137.96Q551.88 140.74 551.59 143.45L561.62 143.89Q571.44 143.89 576.42 143.38M577.66 149.31L551.30 149.75Q551.44 159.86 554.96 165.20Q558.77 170.92 565.72 170.92Q572.10 170.92 575.03 164.62Q576.86 160.52 579.57 160.52Q580.81 160.52 581.65 161.32Q582.50 162.13 582.42 164.14Q582.35 166.16 580.99 168.50Q579.64 170.84 577.22 172.67Q571.95 176.78 564.55 176.78Q556.57 176.78 550.78 169.96Q544.70 162.79 544.70 152.90Q544.70 143.01 546.42 136.82Q548.15 130.63 551 126.53Q556.57 118.26 564.92 118.26Q575.61 118.26 579.93 126.68Q582.94 132.54 583.16 143.89Q583.23 147.11 582.13 148.21Q581.03 149.31 577.66 149.31" fill="#111111"/>
  <path d="M174.68 253.17L174.68 253.77L176.82 253.77Q177.94 253.77 178.80 253.44Q179.65 253.11 180.14 252.45Q180.62 251.80 180.62 250.83Q180.62 249.76 180.15 249.05Q179.67 248.34 178.81 247.98Q177.94 247.62 176.75 247.62L173.86 247.62L173.86 260.92L176.94 260.92Q178.23 260.92 179.23 260.50Q180.22 260.08 180.79 259.23Q181.36 258.37 181.36 257.06Q181.36 256.15 180.99 255.47Q180.62 254.80 180.01 254.36Q179.39 253.93 178.61 253.71Q177.83 253.49 177.01 253.49L174.68 253.49L174.68 254.10L176.94 254.10Q177.62 254.10 178.22 254.29Q178.82 254.48 179.29 254.85Q179.77 255.22 180.03 255.76Q180.30 256.30 180.30 257Q180.30 257.99 179.88 258.65Q179.46 259.30 178.70 259.64Q177.94 259.99 176.94 259.99L174.90 259.99L174.90 248.55L176.75 248.55Q178.04 248.55 178.81 249.17Q179.58 249.78 179.58 250.89Q179.58 251.66 179.20 252.17Q178.82 252.67 178.17 252.92Q177.53 253.17 176.75 253.17L174.68 253.17M192.97 247.62L191.93 247.62L191.93 260.92L192.97 260.92L192.97 247.62M200.78 263.31L200.23 264.11Q200.38 264.30 200.72 264.53Q201.05 264.76 201.51 264.93Q201.98 265.10 202.47 265.10Q203.14 265.10 203.64 264.92Q204.15 264.74 204.48 264.36Q204.81 263.98 204.98 263.41Q205.15 262.84 205.15 262.06L205.15 247.62L204.15 247.62L204.15 261.87Q204.15 263.08 203.72 263.60Q203.29 264.11 202.51 264.11Q201.96 264.11 201.50 263.87Q201.05 263.63 200.78 263.31M216.67 254.27Q216.67 252.60 217.38 251.29Q218.09 249.99 219.34 249.24Q220.58 248.49 222.18 248.49Q223.77 248.49 225.02 249.24Q226.26 249.99 226.96 251.29Q227.67 252.60 227.67 254.27Q227.67 255.92 226.96 257.23Q226.26 258.54 225.02 259.29Q223.77 260.04 222.18 260.04Q220.58 260.04 219.34 259.29Q218.09 258.54 217.38 257.23Q216.67 255.92 216.67 254.27M215.56 254.27Q215.56 255.73 216.06 256.97Q216.55 258.22 217.45 259.14Q218.34 260.06 219.54 260.58Q220.75 261.09 222.18 261.09Q223.60 261.09 224.81 260.58Q226.01 260.06 226.91 259.14Q227.80 258.22 228.29 256.97Q228.79 255.73 228.79 254.27Q228.79 252.80 228.29 251.56Q227.80 250.32 226.91 249.39Q226.01 248.47 224.81 247.96Q223.60 247.45 222.18 247.45Q220.75 247.45 219.54 247.96Q218.34 248.47 217.45 249.39Q216.55 250.32 216.06 251.56Q215.56 252.80 215.56 254.27M240.15 247.62L239.11 247.62L239.11 256.62Q239.11 257.61 239.39 258.44Q239.68 259.26 240.23 259.85Q240.78 260.44 241.57 260.77Q242.35 261.11 243.36 261.11Q244.37 261.11 245.16 260.77Q245.95 260.44 246.50 259.85Q247.05 259.26 247.33 258.44Q247.62 257.61 247.62 256.62L247.62 247.62L246.57 247.62L246.57 256.62Q246.57 258.22 245.74 259.17Q244.90 260.12 243.36 260.12Q241.82 260.12 240.99 259.17Q240.15 258.22 240.15 256.62L240.15 247.62M266.67 247.62L265.42 247.62L262.23 253.03L259.09 247.62L257.84 247.62L261.68 253.94L257.36 260.92L258.62 260.92L262.21 254.88L265.71 260.92L266.96 260.92L262.74 253.94L266.67 247.62M291.89 255.46L291.55 256.45L298.37 256.45L298.02 255.46L291.89 255.46M292.34 255.81L294.93 249.52L297.55 255.86L297.64 256.11L299.62 260.92L300.80 260.92L294.93 247.10L289.06 260.92L290.23 260.92L292.23 256.03L292.34 255.81M313.97 254.57L312.81 254.57L317.21 260.92L318.51 260.92L313.97 254.57M311.59 247.62L310.55 247.62L310.55 260.92L311.59 260.92L311.59 247.62M311.10 247.62L311.10 248.55L313.59 248.55Q314.59 248.55 315.37 248.89Q316.15 249.23 316.60 249.88Q317.04 250.52 317.04 251.47Q317.04 252.42 316.61 253.08Q316.17 253.74 315.38 254.07Q314.59 254.40 313.59 254.40L311.10 254.40L311.10 255.33L313.59 255.33Q314.88 255.33 315.89 254.88Q316.91 254.44 317.50 253.56Q318.09 252.69 318.09 251.47Q318.09 250.24 317.50 249.38Q316.91 248.53 315.89 248.07Q314.88 247.62 313.59 247.62L311.10 247.62M327.13 247.62L327.13 248.61L330.63 248.61L330.63 260.92L331.67 260.92L331.67 248.61L335.17 248.61L335.17 247.62L327.13 247.62M346.02 247.62L344.97 247.62L344.97 260.92L346.02 260.92L346.02 247.62M357.25 257.08L356.39 257.61Q356.72 258.54 357.30 259.34Q357.89 260.14 358.77 260.61Q359.64 261.09 360.80 261.09Q361.62 261.09 362.32 260.83Q363.02 260.58 363.55 260.09Q364.07 259.61 364.36 258.94Q364.66 258.28 364.66 257.46Q364.66 256.59 364.35 255.95Q364.05 255.31 363.56 254.86Q363.08 254.40 362.49 254.10Q361.90 253.79 361.35 253.58Q360.29 253.20 359.57 252.78Q358.84 252.35 358.48 251.82Q358.12 251.28 358.12 250.54Q358.12 249.65 358.75 249.05Q359.38 248.45 360.53 248.45Q361.41 248.45 362 248.79Q362.59 249.12 362.98 249.61Q363.37 250.11 363.57 250.62L364.49 250.11Q364.22 249.46 363.71 248.85Q363.19 248.24 362.42 247.85Q361.66 247.45 360.59 247.45Q359.57 247.45 358.75 247.85Q357.93 248.26 357.48 248.99Q357.02 249.73 357.02 250.68Q357.02 251.53 357.35 252.14Q357.68 252.75 358.22 253.17Q358.75 253.60 359.37 253.90Q359.98 254.19 360.55 254.40Q361.31 254.69 362.01 255.06Q362.70 255.43 363.14 256.02Q363.57 256.60 363.57 257.57Q363.57 258.68 362.84 259.39Q362.11 260.10 360.82 260.10Q359.87 260.10 359.19 259.69Q358.50 259.28 358.04 258.60Q357.57 257.92 357.25 257.08M376.49 255.46L376.15 256.45L382.97 256.45L382.63 255.46L376.49 255.46M376.95 255.81L379.53 249.52L382.16 255.86L382.25 256.11L384.23 260.92L385.41 260.92L379.53 247.10L373.66 260.92L374.84 260.92L376.84 256.03L376.95 255.81M406.31 247.62L405.26 247.62L405.26 258.75L395.15 247.10L395.15 260.92L396.20 260.92L396.20 249.82L406.31 261.43L406.31 247.62M418.88 255.46L418.54 256.45L425.36 256.45L425.02 255.46L418.88 255.46M419.34 255.81L421.92 249.52L424.55 255.86L424.64 256.11L426.62 260.92L427.79 260.92L421.92 247.10L416.05 260.92L417.23 260.92L419.23 256.03L419.34 255.81M438.49 247.62L437.45 247.62L437.45 256.62Q437.45 257.61 437.73 258.44Q438.02 259.26 438.57 259.85Q439.12 260.44 439.91 260.77Q440.70 261.11 441.70 261.11Q442.71 261.11 443.50 260.77Q444.29 260.44 444.84 259.85Q445.39 259.26 445.67 258.44Q445.96 257.61 445.96 256.62L445.96 247.62L444.91 247.62L444.91 256.62Q444.91 258.22 444.08 259.17Q443.24 260.12 441.70 260.12Q440.16 260.12 439.33 259.17Q438.49 258.22 438.49 256.62L438.49 247.62M465.02 247.62L463.76 247.62L460.57 253.03L457.43 247.62L456.18 247.62L460.02 253.94L455.71 260.92L456.96 260.92L460.55 254.88L464.05 260.92L465.30 260.92L461.08 253.94" fill="#8E867D"/>
</svg>
